<svg id="Layer_1" data-name="Layer 1" xmlns="http://www.w3.org/2000/svg" viewBox="0 0 132.74 132.74"><defs><style>.cls-1{fill:#fff;stroke:#fff;}.cls-1,.cls-2,.cls-4{stroke-miterlimit:10;}.cls-2{fill:none;stroke-width:3px;}.cls-2,.cls-4{stroke:#f58220;}.cls-3{fill:#4f4b6a;}.cls-3,.cls-4{fill-rule:evenodd;}.cls-4{fill:#f58220;}</style></defs><rect class="cls-1" x="0.5" y="0.5" width="131.74" height="131.74" rx="31.15"/><circle class="cls-2" cx="65.44" cy="30.53" r="8.68"/><path class="cls-3" d="M-443.68,192.72s1.68,2.37-.06,7.59c0,0-1.47-7.57-8.19-9.19s-11.38,1.92-12.67,4c0,0,.42-6,4.72-8l-14.68-7,20.13-.44,27.37,13.18-16.47-.12" transform="translate(520.66 -172.9)"/><path class="cls-3" d="M-500.54,205.81c6.57-.69,29.64-1.25,45.61,22.18a.34.34,0,0,1,0,.35c-.92,1.62-7.89,14.13-6.64,21.87,0,0-.22-34.84-39-43.76A.32.32,0,0,1-500.54,205.81Z" transform="translate(520.66 -172.9)"/><path class="cls-4" d="M-408.35,205.93S-450,214.16-448.07,255c3.71,40.71,40.31,43.63,40.31,43.63s-35.11,4.67-49.2-25.91A49.85,49.85,0,0,1-458.8,236C-447.35,202.14-408.35,205.93-408.35,205.93Z" transform="translate(520.66 -172.9)"/><path class="cls-3" d="M-427.06,194.91s-1.34.21-1.21,8a2.87,2.87,0,0,0,2.84,0S-425.2,195.8-427.06,194.91Z" transform="translate(520.66 -172.9)"/></svg>