<svg id="Layer_1" data-name="Layer 1" xmlns="http://www.w3.org/2000/svg" viewBox="0 0 465.49 238"><defs><style>.cls-1{fill:#f58220;}.cls-1,.cls-2,.cls-4{fill-rule:evenodd;}.cls-2,.cls-5{fill:#4f4b6a;}.cls-3,.cls-4{fill:none;stroke-miterlimit:10;}.cls-3{stroke:#f58220;stroke-width:7px;}.cls-4{stroke:#4f4b6a;}</style></defs><path class="cls-1" d="M162,347.46V326.58h14.39v3.53H165.9v4.64h9.72v3.53H165.9v5.65h10.83v3.53Zm34.48-20.88h7.16a13.3,13.3,0,0,1,3.7.4,6.39,6.39,0,0,1,2.92,1.93,9.21,9.21,0,0,1,1.86,3.38,16.6,16.6,0,0,1,.63,4.93,14.54,14.54,0,0,1-.6,4.44,9.28,9.28,0,0,1-2.07,3.69,6.72,6.72,0,0,1-2.76,1.67,11.11,11.11,0,0,1-3.46.44h-7.38V326.58Zm3.94,3.53v13.82h2.92a10,10,0,0,0,2.36-.2,3.43,3.43,0,0,0,1.58-.87,4.52,4.52,0,0,0,1-2,14.82,14.82,0,0,0,.39-3.82,13.63,13.63,0,0,0-.39-3.72,5,5,0,0,0-1.11-2,3.68,3.68,0,0,0-1.81-1,16.75,16.75,0,0,0-3.21-.2Zm32.05-3.53h3.93V337.9a24.43,24.43,0,0,0,.15,3.49,3.45,3.45,0,0,0,1.19,2.06,3.88,3.88,0,0,0,2.57.77,3.68,3.68,0,0,0,2.49-.73,2.93,2.93,0,0,0,1-1.8,26.27,26.27,0,0,0,.17-3.55V326.58h3.94v11a30.51,30.51,0,0,1-.32,5.32,6.05,6.05,0,0,1-1.17,2.62,5.85,5.85,0,0,1-2.28,1.7,9.13,9.13,0,0,1-3.73.64,10.06,10.06,0,0,1-4.21-.69,6,6,0,0,1-2.26-1.8,5.89,5.89,0,0,1-1.1-2.32,26.92,26.92,0,0,1-.38-5.3V326.58Zm48.42,13.18,3.8,1.26a9.41,9.41,0,0,1-2.92,5.12,7.86,7.86,0,0,1-5.16,1.67A8.11,8.11,0,0,1,270.2,345a11.42,11.42,0,0,1-2.5-7.78q0-5.2,2.51-8.1a8.32,8.32,0,0,1,6.6-2.88,7.74,7.74,0,0,1,5.79,2.26,8.39,8.39,0,0,1,2,3.86l-3.88,1a4.5,4.5,0,0,0-1.44-2.56,3.93,3.93,0,0,0-2.66-.94,4.27,4.27,0,0,0-3.51,1.67c-.9,1.11-1.35,2.9-1.35,5.39s.44,4.52,1.33,5.63a4.16,4.16,0,0,0,3.45,1.69,3.81,3.81,0,0,0,2.7-1.07,6.45,6.45,0,0,0,1.62-3.37Zm41.06,7.7h-4.24L316,342.71h-7.8l-1.62,4.75h-4.16L310,326.58h4.16l7.79,20.88Zm-7.2-8.28-2.7-7.73-2.63,7.73Zm28,8.28V330.11H337v-3.53H352.4v3.53h-5.73v17.35Zm28.45,0V326.58h3.94v20.88Zm23.24-10.31a14.29,14.29,0,0,1,.89-5.37,9.74,9.74,0,0,1,1.82-2.86,7.52,7.52,0,0,1,2.51-1.89,10,10,0,0,1,4.19-.82,8.83,8.83,0,0,1,6.89,2.86q2.58,2.88,2.58,8T410.73,345a8.71,8.71,0,0,1-6.84,2.86A8.83,8.83,0,0,1,397,345c-1.7-1.89-2.56-4.51-2.56-7.84Zm4.05-.14a8.22,8.22,0,0,0,1.53,5.38,5,5,0,0,0,7.74,0,8.41,8.41,0,0,0,1.51-5.46,8.24,8.24,0,0,0-1.47-5.36,5.18,5.18,0,0,0-7.82,0,8.3,8.3,0,0,0-1.49,5.4Zm34.26,10.45V326.58h3.81l8,14v-14h3.64v20.88h-3.93l-7.88-13.72v13.72Z" transform="translate(-20.63 -152.16)"/><path class="cls-2" d="M214.2,261.56a75.67,75.67,0,0,1-3.35,23.38,46.36,46.36,0,0,1-10,17.51,42.91,42.91,0,0,1-16.39,11,62.34,62.34,0,0,1-22.63,3.77A68.72,68.72,0,0,1,139.75,314a38.25,38.25,0,0,1-15.76-9.8,41.63,41.63,0,0,1-9.43-16.72,81.93,81.93,0,0,1-3.15-24.05,73.38,73.38,0,0,1,3.35-22.94,46.26,46.26,0,0,1,10-17.34,43.41,43.41,0,0,1,16.39-11,62.16,62.16,0,0,1,22.72-3.83,68.47,68.47,0,0,1,21.77,3.17,38.09,38.09,0,0,1,15.75,9.76A41.74,41.74,0,0,1,211,237.87a77.79,77.79,0,0,1,3.24,23.69ZM191,262.64a78.17,78.17,0,0,0-1.34-15.06A31.7,31.7,0,0,0,185.09,236a21.68,21.68,0,0,0-8.59-7.49,30.42,30.42,0,0,0-13.41-2.64c-5.41,0-9.94,1-13.55,3a24.63,24.63,0,0,0-8.82,7.93A32,32,0,0,0,136,248.3a69.66,69.66,0,0,0-1.37,14A82.16,82.16,0,0,0,136,277.81a33.07,33.07,0,0,0,4.53,11.77A20.68,20.68,0,0,0,149,297a31.58,31.58,0,0,0,13.49,2.55c5.41,0,9.94-1,13.55-2.94a23.91,23.91,0,0,0,8.82-8,32.88,32.88,0,0,0,4.73-11.73A70.87,70.87,0,0,0,191,262.64Zm131.38,45.24a8.39,8.39,0,0,1-.66,3.36,7,7,0,0,1-4.5,3.86,11.4,11.4,0,0,1-3.15.44h-9.42a21,21,0,0,1-5.1-.55,10.63,10.63,0,0,1-3.93-2.09,17.18,17.18,0,0,1-3.49-4.07,72,72,0,0,1-3.78-6.63l-27-49.19c-1.57-2.94-3.15-6.1-4.78-9.48s-3.07-6.69-4.36-9.88h-.17q.35,5.86.52,11.68c.11,3.86.17,7.88.17,12v55.07a2.56,2.56,0,0,1-.46,1.47,3.92,3.92,0,0,1-1.6,1.08,12.81,12.81,0,0,1-3.07.69,39.48,39.48,0,0,1-5,.25,38.6,38.6,0,0,1-4.89-.25,11.8,11.8,0,0,1-3-.69,3,3,0,0,1-1.52-1.08,2.68,2.68,0,0,1-.43-1.47V217.84a7,7,0,0,1,2.32-5.74,8.49,8.49,0,0,1,5.67-1.91h11.83a23.09,23.09,0,0,1,5.39.52,11.62,11.62,0,0,1,3.9,1.75,13.46,13.46,0,0,1,3.23,3.38,41.55,41.55,0,0,1,3.1,5.33l21.11,38.48c1.23,2.32,2.43,4.63,3.64,6.87s2.37,4.5,3.46,6.74,2.21,4.47,3.27,6.63,2.12,4.36,3.12,6.52H303c-.17-3.8-.32-7.76-.4-11.87s-.12-8.07-.12-11.82V213.35a2.32,2.32,0,0,1,.52-1.47,4,4,0,0,1,1.66-1.14,11.62,11.62,0,0,1,3.12-.69,48.1,48.1,0,0,1,5-.2,46.12,46.12,0,0,1,4.81.2,9.85,9.85,0,0,1,3,.69,3.43,3.43,0,0,1,1.46,1.14,2.56,2.56,0,0,1,.43,1.47v94.53Zm83.31-1.44a34.14,34.14,0,0,1-.2,4.11,14.16,14.16,0,0,1-.63,2.74,3.31,3.31,0,0,1-1.06,1.58,2.29,2.29,0,0,1-1.46.5H352.57a7,7,0,0,1-4.65-1.58q-1.89-1.57-1.89-5.16V213.1a2.24,2.24,0,0,1,.55-1.47,4.12,4.12,0,0,1,1.8-1.06,18.22,18.22,0,0,1,3.41-.63,57.58,57.58,0,0,1,10.72,0,18.43,18.43,0,0,1,3.35.63,4.12,4.12,0,0,1,1.8,1.06,2.24,2.24,0,0,1,.55,1.47v84.63h34.12a2.37,2.37,0,0,1,1.46.45,3.19,3.19,0,0,1,1.06,1.47,10.67,10.67,0,0,1,.63,2.69,33.63,33.63,0,0,1,.2,4.1Zm41.76-31,29.74-57.31a28.36,28.36,0,0,0,2-4.64,2.31,2.31,0,0,0-.46-2.58,6.51,6.51,0,0,0-3.61-1.05c-1.75-.14-4.24-.19-7.42-.19-2.41,0-4.36.05-5.79.16a13.36,13.36,0,0,0-3.44.64,4.15,4.15,0,0,0-1.89,1.28,6,6,0,0,0-1.06,2.08l-11.94,25.68c-1.06,2.5-2.15,5.11-3.27,7.88s-2.2,5.6-3.26,8.55h-.18c-1.2-3.06-2.35-5.94-3.52-8.71s-2.32-5.39-3.49-7.88l-12.15-25.86a11.37,11.37,0,0,0-1.2-1.88,4.76,4.76,0,0,0-2-1.17,15.13,15.13,0,0,0-3.64-.61c-1.55-.11-3.58-.16-6.16-.16-3.06,0-5.47.05-7.19.19a6.42,6.42,0,0,0-3.55,1.05,2.29,2.29,0,0,0-.52,2.53,26.91,26.91,0,0,0,2.07,4.69l29.73,57.31v37a2.32,2.32,0,0,0,.52,1.47,3.5,3.5,0,0,0,1.8,1.06,22.67,22.67,0,0,0,3.38.63,57.58,57.58,0,0,0,10.72,0,21.28,21.28,0,0,0,3.41-.63,4.12,4.12,0,0,0,1.8-1.06,2.23,2.23,0,0,0,.54-1.47Z" transform="translate(-20.63 -152.16)"/><ellipse class="cls-3" cx="64.85" cy="40.54" rx="14.17" ry="14.27"/><path class="cls-2" d="M20.63,200.63c3.15-.63,40.22-7.15,65.75,29.48,0,0,0,0,0,0-.28.51-10.63,19.66-8.57,31.07,0,0-1.42-50.14-57.18-60.49A0,0,0,0,0,20.63,200.63Z" transform="translate(-20.63 -152.16)"/><path class="cls-2" d="M106.11,175.4S109,179.67,106,189c0,0-2.58-13.48-14.33-16.37S71.79,176,69.54,179.8c0,0,.73-10.79,8.24-14.35L52.12,152.94l35.19-.78,47.85,23.49-29.74-.6" transform="translate(-20.63 -152.16)"/><path class="cls-1" d="M149.89,199.91s-57.21,11.53-54.57,68.73c5.1,57,55.38,61.12,55.38,61.12s-48.24,6.54-67.59-36.3A71.07,71.07,0,0,1,80.58,242C96.31,194.59,149.89,199.91,149.89,199.91Z" transform="translate(-20.63 -152.16)"/><path class="cls-2" d="M135.1,177.44s-2.75.42-2.49,15.83a6.07,6.07,0,0,0,5.82,0S138.91,179.2,135.1,177.44Z" transform="translate(-20.63 -152.16)"/><path class="cls-1" d="M195.36,319.27a35,35,0,0,1,17.21.75s9.13-10,9.56-24c0,0,.92-9.95-2.61-18.54a43.34,43.34,0,0,1-5.62,26.26C206.21,316.71,195.36,319.27,195.36,319.27Z" transform="translate(-20.63 -152.16)"/><path class="cls-1" d="M195.48,319.25s-4.1,1-9.34,1.72" transform="translate(-20.63 -152.16)"/><path class="cls-4" d="M45.45,354.26h0Z" transform="translate(-20.63 -152.16)"/><path class="cls-4" d="M45.45,389.66h0Z" transform="translate(-20.63 -152.16)"/><path class="cls-5" d="M67.82,382.92a8.1,8.1,0,0,1-4.07-1A7,7,0,0,1,61,379.16a8.74,8.74,0,0,1-1-4.18v-5.84A8.73,8.73,0,0,1,61,365a7,7,0,0,1,2.71-2.78,8.1,8.1,0,0,1,4.07-1,8,8,0,0,1,3.53.79A7.54,7.54,0,0,1,74,364.19a7.89,7.89,0,0,1,1.46,3.32H72.29a4.65,4.65,0,0,0-1-1.79,4.92,4.92,0,0,0-1.6-1.2,4.53,4.53,0,0,0-1.9-.42,4.24,4.24,0,0,0-3.3,1.38,5.25,5.25,0,0,0-1.24,3.66V375a5.23,5.23,0,0,0,1.24,3.65,4.24,4.24,0,0,0,3.3,1.38,4.82,4.82,0,0,0,2.74-.88,4.31,4.31,0,0,0,1.73-2.54h3.19A8,8,0,0,1,74,379.92a7.63,7.63,0,0,1-2.68,2.21A7.75,7.75,0,0,1,67.82,382.92Z" transform="translate(-20.63 -152.16)"/><path class="cls-5" d="M79.61,382.7V361.4h3.13v21.3Zm2-9.07v-2.84H93.9v2.84Zm10.69,9.07V361.4h3.12v21.3Z" transform="translate(-20.63 -152.16)"/><path class="cls-5" d="M108.23,382.92a8.33,8.33,0,0,1-4.11-1,6.88,6.88,0,0,1-2.73-2.75,8.43,8.43,0,0,1-1-4.13v-6a8.38,8.38,0,0,1,1-4.13,6.86,6.86,0,0,1,2.73-2.74,9.13,9.13,0,0,1,8.23,0,6.86,6.86,0,0,1,2.73,2.74,8.38,8.38,0,0,1,1,4.13v6a8.43,8.43,0,0,1-1,4.13,6.88,6.88,0,0,1-2.73,2.75A8.37,8.37,0,0,1,108.23,382.92Zm0-2.94a4.43,4.43,0,0,0,3.36-1.32,4.84,4.84,0,0,0,1.26-3.49v-6.24a4.82,4.82,0,0,0-1.26-3.49,5,5,0,0,0-6.71,0,4.83,4.83,0,0,0-1.27,3.49v6.24a4.84,4.84,0,0,0,1.27,3.49A4.45,4.45,0,0,0,108.23,380Z" transform="translate(-20.63 -152.16)"/><path class="cls-5" d="M127.84,382.92a8.33,8.33,0,0,1-4.11-1A6.88,6.88,0,0,1,121,379.2a8.43,8.43,0,0,1-1-4.13v-6a8.38,8.38,0,0,1,1-4.13,6.86,6.86,0,0,1,2.73-2.74,9.13,9.13,0,0,1,8.23,0,6.86,6.86,0,0,1,2.73,2.74,8.38,8.38,0,0,1,1,4.13v6a8.43,8.43,0,0,1-1,4.13A6.88,6.88,0,0,1,132,382,8.37,8.37,0,0,1,127.84,382.92Zm0-2.94a4.43,4.43,0,0,0,3.36-1.32,4.84,4.84,0,0,0,1.26-3.49v-6.24a4.82,4.82,0,0,0-1.26-3.49,5,5,0,0,0-6.71,0,4.83,4.83,0,0,0-1.27,3.49v6.24a4.84,4.84,0,0,0,1.27,3.49A4.45,4.45,0,0,0,127.84,380Z" transform="translate(-20.63 -152.16)"/><path class="cls-5" d="M146.78,382.92a15.56,15.56,0,0,1-3.05-.29,12.21,12.21,0,0,1-2.68-.88,11.15,11.15,0,0,1-2.33-1.47l1.94-2.28a8.94,8.94,0,0,0,2.8,1.58,10.18,10.18,0,0,0,3.32.53,6.84,6.84,0,0,0,3.75-.87,2.71,2.71,0,0,0,1.33-2.41v0a2.45,2.45,0,0,0-.67-1.86,4.18,4.18,0,0,0-1.77-1,20.76,20.76,0,0,0-2.39-.52c-.84-.13-1.68-.3-2.54-.48a8.83,8.83,0,0,1-2.34-.87,4.48,4.48,0,0,1-1.72-1.71,5.79,5.79,0,0,1-.65-3v0a5.51,5.51,0,0,1,2.06-4.6,9.19,9.19,0,0,1,5.83-1.64,11.58,11.58,0,0,1,3.5.55,12.78,12.78,0,0,1,3.34,1.68l-1.78,2.37a10.39,10.39,0,0,0-2.53-1.35,7.69,7.69,0,0,0-2.53-.43,6.17,6.17,0,0,0-3.54.87,2.82,2.82,0,0,0-1.26,2.46v0a2.27,2.27,0,0,0,.73,1.83,4.66,4.66,0,0,0,1.92.93c.79.2,1.64.39,2.55.56s1.63.35,2.44.57a8.42,8.42,0,0,1,2.23.95,4.65,4.65,0,0,1,1.61,1.71,5.78,5.78,0,0,1,.6,2.82v0a5.35,5.35,0,0,1-2.14,4.56A9.9,9.9,0,0,1,146.78,382.92Z" transform="translate(-20.63 -152.16)"/><path class="cls-5" d="M159.08,382.7V361.4h3.12v21.3Zm1.51-18.46V361.4h12.78v2.84Zm0,9.31V370.7h11.09v2.85Zm0,9.15v-2.84h12.78v2.84Z" transform="translate(-20.63 -152.16)"/><path class="cls-5" d="M193.57,382.92a8.33,8.33,0,0,1-4.11-1,6.88,6.88,0,0,1-2.73-2.75,8.43,8.43,0,0,1-1-4.13v-6a8.38,8.38,0,0,1,1-4.13,6.86,6.86,0,0,1,2.73-2.74,9.13,9.13,0,0,1,8.23,0,6.86,6.86,0,0,1,2.73,2.74,8.38,8.38,0,0,1,1,4.13v6a8.43,8.43,0,0,1-1,4.13,6.88,6.88,0,0,1-2.73,2.75A8.37,8.37,0,0,1,193.57,382.92Zm0-2.94a4.43,4.43,0,0,0,3.36-1.32,4.84,4.84,0,0,0,1.26-3.49v-6.24a4.82,4.82,0,0,0-1.26-3.49,5,5,0,0,0-6.71,0,4.83,4.83,0,0,0-1.27,3.49v6.24a4.84,4.84,0,0,0,1.27,3.49A4.45,4.45,0,0,0,193.57,380Z" transform="translate(-20.63 -152.16)"/><path class="cls-5" d="M206.13,382.69V361.4H209l10.88,16.47-.37.38V361.4h3.09v21.29H219.7l-10.85-16.22.37-.38v16.6Z" transform="translate(-20.63 -152.16)"/><path class="cls-5" d="M228.07,382.7V361.4h3.12v21.3Zm1.51-18.46V361.4h12.77v2.84Zm0,9.31V370.7h11.09v2.85Zm0,9.15v-2.84h12.77v2.84Z" transform="translate(-20.63 -152.16)"/><path class="cls-5" d="M262.48,382.92a8.06,8.06,0,0,1-4.06-1,6.82,6.82,0,0,1-2.71-2.77,8.63,8.63,0,0,1-1-4.18v-5.84a8.62,8.62,0,0,1,1-4.19,6.84,6.84,0,0,1,2.71-2.78,8.06,8.06,0,0,1,4.06-1A8,8,0,0,1,266,362a7.49,7.49,0,0,1,2.68,2.22,8,8,0,0,1,1.46,3.32H267a4.52,4.52,0,0,0-1-1.79,4.81,4.81,0,0,0-1.6-1.2,4.49,4.49,0,0,0-1.9-.42,4.22,4.22,0,0,0-3.29,1.38,5.26,5.26,0,0,0-1.25,3.66V375a5.23,5.23,0,0,0,1.25,3.65,4.22,4.22,0,0,0,3.29,1.38,4.8,4.8,0,0,0,2.74-.88,4.31,4.31,0,0,0,1.73-2.54h3.2a8.13,8.13,0,0,1-1.47,3.33,7.54,7.54,0,0,1-2.68,2.21A7.75,7.75,0,0,1,262.48,382.92Z" transform="translate(-20.63 -152.16)"/><path class="cls-5" d="M274.28,382.7V361.4h3.12v21.3Zm1.94-9.07v-2.84h12.34v2.84Zm10.69,9.07V361.4H290v21.3Z" transform="translate(-20.63 -152.16)"/><path class="cls-5" d="M302.9,382.92a8.39,8.39,0,0,1-4.12-1,6.88,6.88,0,0,1-2.73-2.75,8.43,8.43,0,0,1-1-4.13v-6a8.38,8.38,0,0,1,1-4.13,6.86,6.86,0,0,1,2.73-2.74,9.13,9.13,0,0,1,8.23,0,6.86,6.86,0,0,1,2.73,2.74,8.38,8.38,0,0,1,1,4.13v6a8.43,8.43,0,0,1-1,4.13A6.88,6.88,0,0,1,307,382,8.33,8.33,0,0,1,302.9,382.92Zm0-2.94a4.42,4.42,0,0,0,3.35-1.32,4.8,4.8,0,0,0,1.27-3.49v-6.24a4.79,4.79,0,0,0-1.27-3.49,4.94,4.94,0,0,0-6.7,0,4.79,4.79,0,0,0-1.27,3.49v6.24a4.8,4.8,0,0,0,1.27,3.49A4.42,4.42,0,0,0,302.9,380Z" transform="translate(-20.63 -152.16)"/><path class="cls-5" d="M322.51,382.92a8.39,8.39,0,0,1-4.12-1,6.88,6.88,0,0,1-2.73-2.75,8.43,8.43,0,0,1-1-4.13v-6a8.38,8.38,0,0,1,1-4.13,6.86,6.86,0,0,1,2.73-2.74,9.13,9.13,0,0,1,8.23,0,6.79,6.79,0,0,1,2.73,2.74,8.38,8.38,0,0,1,1,4.13v6a8.43,8.43,0,0,1-1,4.13,6.82,6.82,0,0,1-2.73,2.75A8.33,8.33,0,0,1,322.51,382.92Zm0-2.94a4.46,4.46,0,0,0,3.36-1.32,4.84,4.84,0,0,0,1.26-3.49v-6.24a4.82,4.82,0,0,0-1.26-3.49,5,5,0,0,0-6.71,0,4.79,4.79,0,0,0-1.27,3.49v6.24a4.8,4.8,0,0,0,1.27,3.49A4.42,4.42,0,0,0,322.51,380Z" transform="translate(-20.63 -152.16)"/><path class="cls-5" d="M341.44,382.92a15.63,15.63,0,0,1-3.05-.29,12.12,12.12,0,0,1-2.67-.88,11.21,11.21,0,0,1-2.34-1.47l1.95-2.28a8.9,8.9,0,0,0,2.79,1.58,10.22,10.22,0,0,0,3.32.53,6.8,6.8,0,0,0,3.75-.87,2.71,2.71,0,0,0,1.33-2.41v0a2.45,2.45,0,0,0-.67-1.86,4.18,4.18,0,0,0-1.77-1,20.3,20.3,0,0,0-2.39-.52c-.84-.13-1.68-.3-2.53-.48a8.9,8.9,0,0,1-2.35-.87,4.55,4.55,0,0,1-1.72-1.71,5.89,5.89,0,0,1-.65-3v0a5.54,5.54,0,0,1,2.06-4.6,9.19,9.19,0,0,1,5.83-1.64,11.53,11.53,0,0,1,3.5.55,12.62,12.62,0,0,1,3.34,1.68l-1.77,2.37a10.45,10.45,0,0,0-2.54-1.35,7.69,7.69,0,0,0-2.53-.43,6.17,6.17,0,0,0-3.54.87,2.82,2.82,0,0,0-1.26,2.46v0a2.27,2.27,0,0,0,.73,1.83,4.66,4.66,0,0,0,1.92.93c.79.2,1.64.39,2.55.56s1.63.35,2.45.57a8.5,8.5,0,0,1,2.22.95A4.57,4.57,0,0,1,349,373.9a5.78,5.78,0,0,1,.6,2.82v0a5.35,5.35,0,0,1-2.14,4.56A9.87,9.87,0,0,1,341.44,382.92Z" transform="translate(-20.63 -152.16)"/><path class="cls-5" d="M353.74,382.7V361.4h3.12v21.3Zm1.52-18.46V361.4H368v2.84Zm0,9.31V370.7h11.09v2.85Zm0,9.15v-2.84H368v2.84Z" transform="translate(-20.63 -152.16)"/><path class="cls-5" d="M385.76,378.1l4.56-16.7h2.14L397,378.1,401,361.4h3.24l-5.43,21.3h-3.18l-4.1-14.88L387.2,382.7H384l-5.43-21.3h3.25Z" transform="translate(-20.63 -152.16)"/><path class="cls-5" d="M410.68,361.4v21.3h-3.12V361.4Z" transform="translate(-20.63 -152.16)"/><path class="cls-5" d="M422.87,382.92a15.56,15.56,0,0,1-3.05-.29,12,12,0,0,1-2.68-.88,11.15,11.15,0,0,1-2.33-1.47l1.94-2.28a8.94,8.94,0,0,0,2.8,1.58,10.14,10.14,0,0,0,3.32.53,6.84,6.84,0,0,0,3.75-.87,2.73,2.73,0,0,0,1.33-2.41v0a2.45,2.45,0,0,0-.68-1.86,4.14,4.14,0,0,0-1.76-1,20.49,20.49,0,0,0-2.4-.52c-.83-.13-1.68-.3-2.53-.48a9,9,0,0,1-2.35-.87,4.62,4.62,0,0,1-1.72-1.71,5.89,5.89,0,0,1-.65-3v0a5.52,5.52,0,0,1,2.07-4.6,9.16,9.16,0,0,1,5.82-1.64,11.6,11.6,0,0,1,3.51.55,12.72,12.72,0,0,1,3.33,1.68l-1.77,2.37a10.58,10.58,0,0,0-2.53-1.35,7.74,7.74,0,0,0-2.54-.43,6.2,6.2,0,0,0-3.54.87,2.82,2.82,0,0,0-1.26,2.46v0a2.28,2.28,0,0,0,.74,1.83,4.66,4.66,0,0,0,1.92.93c.79.2,1.64.39,2.54.56s1.63.35,2.45.57a8.42,8.42,0,0,1,2.23.95,4.63,4.63,0,0,1,1.6,1.71,5.78,5.78,0,0,1,.61,2.82v0a5.36,5.36,0,0,1-2.15,4.56A9.84,9.84,0,0,1,422.87,382.92Z" transform="translate(-20.63 -152.16)"/><path class="cls-5" d="M435.17,382.7V361.4h3.12v21.3Zm1.51-18.46V361.4h12.77v2.84Zm0,9.31V370.7h11.09v2.85Zm0,9.15v-2.84h12.77v2.84Z" transform="translate(-20.63 -152.16)"/><path class="cls-5" d="M453.89,382.7V361.4H457v21.3Zm1.56,0v-2.84h12.73v2.84Z" transform="translate(-20.63 -152.16)"/><path class="cls-5" d="M484.24,361.4,477.46,374v8.66h-3.12V374l-6.78-12.64H471L475.9,371l4.86-9.61Z" transform="translate(-20.63 -152.16)"/></svg>