<svg width="768" height="480" viewBox="0 0 768 480" fill="none" xmlns="http://www.w3.org/2000/svg">
<path d="M235.29 384.389V350.836H258.876V356.506H241.742V363.958H257.673V369.628H241.742V378.72H259.498V384.39H235.288L235.29 384.389ZM291.805 350.836H303.539C306.187 350.836 308.204 351.046 309.591 351.477C311.452 352.054 313.054 353.086 314.381 354.569C315.717 356.046 316.725 357.858 317.423 360.005C318.113 362.144 318.461 364.793 318.461 367.933C318.461 370.697 318.134 373.072 317.482 375.072C316.689 377.516 315.553 379.492 314.078 380.999C312.966 382.146 311.461 383.037 309.568 383.678C308.151 384.154 306.261 384.389 303.887 384.389H291.804V350.836H291.805ZM298.259 356.506V378.718H303.043C304.831 378.718 306.121 378.609 306.914 378.397C307.96 378.125 308.82 377.656 309.503 376.999C310.193 376.343 310.75 375.266 311.178 373.766C311.616 372.267 311.831 370.212 311.831 367.619C311.831 365.025 311.616 363.042 311.178 361.652C310.748 360.26 310.14 359.183 309.361 358.403C308.583 357.63 307.596 357.099 306.395 356.826C305.505 356.616 303.747 356.505 301.136 356.505H298.259V356.506ZM350.776 350.836H357.229V369.018C357.229 371.907 357.311 373.775 357.467 374.626C357.741 376 358.387 377.11 359.41 377.937C360.441 378.773 361.844 379.187 363.623 379.187C365.426 379.187 366.79 378.797 367.709 378.007C368.629 377.219 369.178 376.258 369.363 375.109C369.549 373.961 369.645 372.063 369.645 369.408V350.836H376.098V368.479C376.098 372.509 375.928 375.359 375.58 377.024C375.232 378.688 374.593 380.094 373.659 381.241C372.731 382.389 371.486 383.296 369.929 383.974C368.364 384.653 366.331 384.997 363.816 384.997C360.783 384.997 358.484 384.629 356.918 383.888C355.353 383.146 354.114 382.185 353.201 380.997C352.289 379.811 351.696 378.577 351.407 377.272C350.983 375.351 350.776 372.507 350.776 368.752V350.835V350.836ZM430.129 372.018L436.36 374.034C435.403 377.728 433.808 380.469 431.582 382.265C429.357 384.053 426.538 384.952 423.119 384.952C418.884 384.952 415.404 383.429 412.676 380.383C409.954 377.337 408.59 373.173 408.59 367.887C408.59 362.302 409.962 357.96 412.698 354.866C415.435 351.774 419.039 350.226 423.504 350.226C427.406 350.226 430.572 351.445 433.005 353.873C434.459 355.311 435.541 357.371 436.268 360.066L429.905 361.66C429.526 359.926 428.739 358.551 427.545 357.543C426.343 356.535 424.889 356.036 423.183 356.036C420.818 356.036 418.897 356.927 417.428 358.715C415.952 360.495 415.216 363.385 415.216 367.384C415.216 371.618 415.943 374.64 417.39 376.438C418.844 378.242 420.728 379.14 423.048 379.14C424.762 379.14 426.237 378.569 427.468 377.422C428.699 376.274 429.59 374.477 430.125 372.016L430.129 372.018ZM497.422 384.39H490.472L487.722 376.752H474.942L472.294 384.39H465.47L477.842 350.838H484.658L497.423 384.39H497.422ZM485.629 371.081L481.201 358.662L476.9 371.081H485.63H485.629ZM531.553 384.39V356.508H522.118V350.838H547.395V356.508H538.007V384.39H531.553ZM578.181 384.39V350.838H584.634V384.39H578.181ZM616.265 367.816C616.265 364.396 616.755 361.522 617.726 359.195C618.445 357.484 619.44 355.946 620.693 354.587C621.947 353.228 623.319 352.221 624.81 351.557C626.797 350.674 629.09 350.23 631.685 350.23C636.388 350.23 640.142 351.769 642.966 354.837C645.785 357.914 647.195 362.186 647.195 367.662C647.195 373.09 645.793 377.34 642.997 380.4C640.2 383.469 636.455 385 631.774 385C627.034 385 623.258 383.477 620.462 380.423C617.665 377.377 616.264 373.175 616.264 367.816H616.265ZM622.897 367.59C622.897 371.394 623.735 374.276 625.404 376.244C627.073 378.203 629.195 379.189 631.761 379.189C634.335 379.189 636.442 378.213 638.095 376.268C639.742 374.315 640.565 371.394 640.565 367.497C640.565 363.647 639.765 360.772 638.155 358.882C636.553 356.983 634.423 356.038 631.761 356.038C629.106 356.038 626.962 356.999 625.338 358.912C623.714 360.833 622.899 363.724 622.899 367.59H622.897ZM679.048 384.39V350.838H685.293L698.406 373.324V350.838H704.37V384.39H697.925L685.012 362.334V384.39H679.048Z" fill="#F07F1B"/>
<path d="M320.902 247.929C320.902 261.929 319.071 274.459 315.409 285.515C311.746 296.571 306.301 305.979 299.024 313.647C291.794 321.36 282.827 327.246 272.169 331.303C261.466 335.36 249.118 337.366 235.08 337.366C221.229 337.366 209.163 335.628 198.882 332.195C188.553 328.762 179.962 323.546 173.061 316.457C166.206 309.414 161.042 300.452 157.615 289.572C154.189 278.694 152.451 265.808 152.451 250.918C152.451 237.274 154.282 224.969 157.944 214.046C161.605 203.123 167.052 193.85 174.329 186.18C181.559 178.512 190.527 172.627 201.184 168.57C211.889 164.467 224.283 162.416 238.415 162.416C251.888 162.416 263.766 164.111 274.095 167.499C284.376 170.887 293.015 176.105 299.916 183.194C306.866 190.238 312.075 199.11 315.596 209.856C319.118 220.646 320.902 233.307 320.902 247.931V247.929ZM282.874 249.667C282.874 240.796 282.123 232.726 280.667 225.457C279.211 218.19 276.724 211.949 273.203 206.776C269.681 201.605 264.987 197.591 259.118 194.738C253.249 191.929 245.926 190.502 237.147 190.502C228.273 190.502 220.855 192.107 214.939 195.272C208.977 198.437 204.142 202.717 200.479 208.023C196.817 213.329 194.235 219.526 192.732 226.615C191.23 233.748 190.479 241.238 190.479 249.175C190.479 258.403 191.23 266.697 192.686 274.054C194.141 281.409 196.629 287.696 200.104 292.958C203.578 298.174 208.226 302.142 214.094 304.907C219.961 307.626 227.333 309.009 236.206 309.009C245.08 309.009 252.498 307.449 258.413 304.283C264.376 301.163 269.211 296.882 272.874 291.487C276.534 286.093 279.118 279.806 280.62 272.627C282.123 265.449 282.874 257.78 282.874 249.666V249.667ZM498.179 322.384C498.179 324.391 497.805 326.174 497.099 327.779C496.348 329.338 495.363 330.632 494.095 331.703C492.875 332.728 491.419 333.486 489.729 333.977C487.993 334.468 486.303 334.689 484.565 334.689H469.119C465.879 334.689 463.11 334.378 460.762 333.797C458.462 333.173 456.302 332.059 454.33 330.454C452.312 328.849 450.433 326.665 448.602 323.899C446.771 321.181 444.705 317.613 442.405 313.244L398.227 234.196C395.645 229.471 393.062 224.389 390.387 218.948C387.711 213.509 385.363 208.203 383.251 203.075H382.969C383.344 209.362 383.627 215.603 383.813 221.846C384.001 228.043 384.096 234.507 384.096 241.107V329.608C384.096 330.456 383.861 331.258 383.345 331.971C382.828 332.64 381.937 333.219 380.716 333.709C379.494 334.2 377.804 334.556 375.692 334.822C373.58 335.091 370.857 335.224 367.57 335.224C364.329 335.224 361.654 335.091 359.542 334.822C357.428 334.554 355.787 334.198 354.613 333.709C353.392 333.262 352.548 332.638 352.124 331.971C351.654 331.258 351.42 330.456 351.42 329.608V177.663C351.42 173.561 352.687 170.486 355.222 168.435C357.711 166.384 360.808 165.358 364.517 165.358H383.906C387.381 165.358 390.337 165.626 392.733 166.206C395.128 166.785 397.24 167.721 399.118 169.014C400.995 170.308 402.78 172.136 404.423 174.453C406.067 176.727 407.757 179.624 409.493 183.014L444.094 244.853C446.113 248.597 448.085 252.298 450.056 255.909C452.027 259.52 453.953 263.131 455.737 266.742C457.568 270.353 459.352 273.921 461.09 277.399C462.873 280.92 464.564 284.398 466.208 287.876H466.347C466.066 281.767 465.831 275.391 465.691 268.793C465.55 262.15 465.503 255.819 465.503 249.801V170.439C465.503 169.592 465.786 168.79 466.347 168.077C466.864 167.408 467.803 166.783 469.071 166.249C470.385 165.715 472.075 165.357 474.189 165.135C476.303 164.912 479.025 164.824 482.311 164.824C485.457 164.824 488.086 164.914 490.2 165.135C492.312 165.358 493.909 165.715 495.082 166.249C496.208 166.783 497.054 167.408 497.476 168.077C497.946 168.79 498.181 169.549 498.181 170.439V322.384H498.179ZM634.706 320.067C634.706 322.652 634.613 324.882 634.377 326.665C634.143 328.448 633.767 329.919 633.345 331.078C632.875 332.282 632.311 333.129 631.607 333.619C630.902 334.153 630.105 334.421 629.212 334.421H547.663C544.659 334.421 542.123 333.574 540.058 331.881C537.992 330.186 536.96 327.422 536.96 323.588V170.038C536.96 169.191 537.241 168.388 537.853 167.676C538.462 167.006 539.448 166.427 540.81 165.981C542.171 165.535 544.049 165.223 546.397 164.955C548.745 164.687 551.655 164.554 555.129 164.554C558.699 164.554 561.655 164.687 563.956 164.955C566.21 165.223 568.088 165.535 569.449 165.981C570.809 166.427 571.796 167.006 572.406 167.676C573.016 168.388 573.299 169.191 573.299 170.038V306.066H629.215C630.108 306.066 630.952 306.289 631.61 306.778C632.315 307.269 632.878 308.027 633.348 309.141C633.817 310.211 634.146 311.638 634.38 313.464C634.614 315.247 634.709 317.432 634.709 320.062L634.706 320.067ZM703.157 270.267V329.743C703.157 330.59 702.875 331.393 702.265 332.105C701.655 332.775 700.668 333.354 699.307 333.8C697.946 334.201 696.066 334.558 693.72 334.826C691.372 335.094 688.462 335.227 684.988 335.227C681.42 335.227 678.461 335.094 676.161 334.826C673.907 334.558 672.028 334.201 670.621 333.8C669.165 333.354 668.18 332.775 667.663 332.105C667.101 331.393 666.818 330.59 666.818 329.743V270.267L618.085 178.154C616.349 174.944 615.222 172.404 614.705 170.619C614.189 168.836 614.471 167.499 615.55 166.562C616.582 165.67 618.554 165.09 621.371 164.867C624.187 164.644 628.13 164.556 633.155 164.556C637.381 164.556 640.715 164.646 643.249 164.824C645.785 165.002 647.755 165.315 649.211 165.804C650.667 166.295 651.747 166.918 652.45 167.677C653.108 168.48 653.764 169.46 654.422 170.709L674.33 212.262C676.254 216.274 678.178 220.509 680.057 224.925C681.982 229.383 683.859 234.02 685.832 238.924H686.114C687.851 234.198 689.636 229.651 691.467 225.193C693.298 220.734 695.081 216.544 696.819 212.53L716.396 171.245C716.866 169.818 717.429 168.704 718.132 167.902C718.789 167.055 719.822 166.387 721.231 165.851C722.592 165.36 724.472 165.004 726.866 164.825C729.214 164.647 732.406 164.557 736.35 164.557C741.561 164.557 745.645 164.647 748.509 164.869C751.42 165.092 753.392 165.671 754.424 166.563C755.504 167.499 755.739 168.883 755.175 170.711C754.659 172.539 753.532 174.991 751.888 178.156L703.155 270.268L703.157 270.267Z" fill="#5E5A71"/>
<path fill-rule="evenodd" clip-rule="evenodd" d="M117.658 198.925L109.821 215.351C109.046 217.194 108.433 219.259 107.784 221.094C105.773 226.772 104.048 235.053 103.344 241.142C103.178 242.559 102.981 246.957 102.681 247.921C102.554 276.869 110.702 300.694 129.165 321.205C146.381 340.331 168.877 351.859 195.483 355.714C200.693 356.468 218.762 357.534 223.142 355.643C221.908 354.959 216.082 353.987 213.556 353.335C209.785 352.364 207.571 351.581 204.092 350.658C203.132 350.405 203.259 350.409 202.338 349.947C201.587 349.572 200.988 349.353 200.089 349.02C198.74 348.519 197.157 347.92 195.743 347.315C193.021 346.153 190.158 344.577 187.539 343.138C182.114 340.156 177.779 337.321 172.904 333.575C163.316 326.209 156.691 318.274 149.815 308.558C147.177 304.828 143.186 297.041 141.496 292.862C127.119 257.259 131.338 221.694 154.206 191.042C155.922 188.742 157.683 186.407 159.681 184.285C175.231 167.767 194.483 155.952 217.547 151.371C220.846 150.717 221.423 150.721 221.834 149.59C217.556 148.306 200.442 148.977 195.249 149.776C181.87 151.837 169.277 155.629 158.14 161.635C153.555 164.108 144.773 169.754 140.826 173.285C130.105 182.882 128.525 184.248 120.105 195.961L117.656 198.925H117.658Z" fill="#F07F1B"/>
<path fill-rule="evenodd" clip-rule="evenodd" d="M113.299 123.789C108.754 124.723 105.56 126.015 102.586 128.649L99.2976 131.57C97.614 132.713 99.0713 130.626 97.8098 133.446C97.0973 135.038 96.672 134.927 95.1585 138.245C93.8008 141.22 94.6787 140.249 94.0287 142.01C89.0887 155.397 102.551 176.856 123.923 172.229C138.212 169.135 146.712 155.252 143.664 142.646C140.385 129.076 127.059 120.965 113.299 123.791V123.789Z" fill="#F07F1B"/>
<path fill-rule="evenodd" clip-rule="evenodd" d="M75.8611 183.531C76.4597 184.954 75.9766 184.152 76.9989 185.277L80.9791 190.053C93.0657 205.15 102.727 228.908 102.681 247.921C102.981 246.958 103.178 242.561 103.344 241.142C104.048 235.053 105.772 226.772 107.783 221.094C108.433 219.259 109.046 217.194 109.819 215.351L117.656 198.925C116.562 196.461 110.786 189.06 109.041 186.978C103.433 180.292 94.5021 172.097 87.3249 167.432C84.4698 165.576 77.1996 160.811 73.5532 159.786L61.0541 154.511C56.0693 152.935 52.1549 151.811 46.7303 150.76C35.6773 148.617 23.4687 148.529 12 149.786C17.7167 152.11 30.3602 152.01 48.1843 162.264C63.6204 171.144 64.2062 172.964 74.9382 182.951C76.0135 183.953 75.0361 183.224 75.8595 183.529L75.8611 183.531Z" fill="#5E5A71"/>
<path fill-rule="evenodd" clip-rule="evenodd" d="M132.078 101.565C131.409 100.714 123.986 97.0981 122.217 96.4609C119.818 95.5959 110.503 96.1961 107.155 96.2908C96.9014 96.5813 86.5979 96.485 76.3633 96.7643C76.9347 97.7721 82.6594 100.117 84.0172 100.781C86.7792 102.134 89.6697 103.255 92.52 104.588C95.1793 105.834 98.3827 107.223 100.973 108.49L108.998 112.372C109.047 112.412 109.145 112.523 109.219 112.598C105.12 116.585 99.1659 120.143 98.5143 130.259C100.384 128.818 100.803 127.307 103.111 125.706C104.989 124.404 107.179 123.428 109.075 122.165C117.353 119.963 123.878 118.646 132.866 124.162C139.737 128.378 142.17 133.355 144.11 140.033C144.152 140.176 144.262 140.591 144.315 140.723C144.946 142.259 144.376 140.97 144.888 141.689C147.387 134.279 146.687 132.299 145.338 124.823L181.949 125.083C178.59 122.836 134.031 101.807 132.081 101.565H132.078Z" fill="#5E5A71"/>
<path fill-rule="evenodd" clip-rule="evenodd" d="M178.821 144.563C178.933 144.632 179.1 144.603 179.166 144.758L181.715 145.453C182.79 145.518 184.141 145.306 185.112 144.995C185.834 140.925 184.915 129.888 182.575 127.383C179.938 127.457 179.856 129.954 179.323 134.615C178.985 137.572 178.721 141.471 178.823 144.562L178.821 144.563Z" fill="black"/>
<path fill-rule="evenodd" clip-rule="evenodd" d="M114.907 131.092C111.729 131.745 109.497 132.647 107.419 134.488L105.12 136.529C103.944 137.328 104.963 135.87 104.08 137.84C103.583 138.954 103.286 138.876 102.227 141.195C101.277 143.275 101.891 142.596 101.437 143.827C97.9832 153.183 107.393 168.184 122.333 164.949C132.32 162.787 138.262 153.082 136.132 144.27C133.84 134.785 124.525 129.114 114.907 131.09V131.092Z" fill="white"/>
<path fill-rule="evenodd" clip-rule="evenodd" d="M318.975 307.488C318.256 308.064 318.638 307.656 318.16 308.425L316.073 311.484C309.397 320.871 297.363 330.282 286.462 333.359C287.063 333.373 289.615 332.77 290.454 332.633C294.057 332.043 299.084 331.68 302.664 331.905C303.821 331.977 305.104 331.991 306.286 332.134L316.975 333.945C318.208 332.916 321.506 328.4 322.413 327.06C325.329 322.757 328.564 316.303 330.066 311.429C330.663 309.491 332.207 304.547 332.199 302.293L333.181 294.271C333.271 291.159 333.276 288.733 332.994 285.454C332.418 278.773 330.476 271.764 327.885 265.399C327.487 269.053 329.607 276.28 326.641 288.163C324.074 298.455 323.125 299.086 319.155 306.865C318.757 307.645 319.015 306.966 318.975 307.486V307.488Z" fill="#F07F1B"/>
</svg>
